<svg width="44" height="44" viewBox="0 0 44 44" fill="none" xmlns="http://www.w3.org/2000/svg">
<circle cx="22" cy="22" r="20" fill="#ffffff" stroke="#ffffff" stroke-width="2"/>
<path d="M22 32C23.1046 32 24 31.1046 24 30C24 28.8954 23.1046 28 22 28C20.8954 28 20 28.8954 20 30C20 31.1046 20.8954 32 22 32Z" fill="#252C41"/>
<path d="M22 24C23.1046 24 24 23.1046 24 22C24 20.8954 23.1046 20 22 20C20.8954 20 20 20.8954 20 22V24C20 25.1046 20.8954 26 22 26C23.1046 26 24 25.1046 24 24H22Z" fill="#252C41"/>
<path d="M22 16C25.3137 16 28 18.6863 28 22C28 25.3137 25.3137 28 22 28C18.6863 28 16 25.3137 16 22C16 18.6863 18.6863 16 22 16Z" stroke="#252C41" stroke-width="2" fill="none"/>
</svg>
